<?xml version="1.0" encoding="UTF-8" standalone="no"?>
<!-- Created with Inkscape (http://www.inkscape.org/) -->

<svg
   xmlns:dc="http://purl.org/dc/elements/1.1/"
   xmlns:cc="http://creativecommons.org/ns#"
   xmlns:rdf="http://www.w3.org/1999/02/22-rdf-syntax-ns#"
   xmlns:svg="http://www.w3.org/2000/svg"
   xmlns="http://www.w3.org/2000/svg"
   xmlns:sodipodi="http://sodipodi.sourceforge.net/DTD/sodipodi-0.dtd"
   xmlns:inkscape="http://www.inkscape.org/namespaces/inkscape"
   width="210mm"
   height="297mm"
   id="svg3313"
   version="1.1"
   inkscape:version="0.47pre4 r22446"
   sodipodi:docname="fosdem.svg"
   inkscape:export-filename="/home/raphael/Desktop/fosdem.png"
   inkscape:export-xdpi="90"
   inkscape:export-ydpi="90">
  <defs
     id="defs3315">
    <inkscape:perspective
       sodipodi:type="inkscape:persp3d"
       inkscape:vp_x="0 : 526.18109 : 1"
       inkscape:vp_y="0 : 1000 : 0"
       inkscape:vp_z="744.09448 : 526.18109 : 1"
       inkscape:persp3d-origin="372.04724 : 350.78739 : 1"
       id="perspective3321" />
    <inkscape:perspective
       id="perspective3340"
       inkscape:persp3d-origin="0.5 : 0.33333333 : 1"
       inkscape:vp_z="1 : 0.5 : 1"
       inkscape:vp_y="0 : 1000 : 0"
       inkscape:vp_x="0 : 0.5 : 1"
       sodipodi:type="inkscape:persp3d" />
    <inkscape:perspective
       id="perspective3698"
       inkscape:persp3d-origin="0.5 : 0.33333333 : 1"
       inkscape:vp_z="1 : 0.5 : 1"
       inkscape:vp_y="0 : 1000 : 0"
       inkscape:vp_x="0 : 0.5 : 1"
       sodipodi:type="inkscape:persp3d" />
  </defs>
  <sodipodi:namedview
     id="base"
     pagecolor="#ffffff"
     bordercolor="#666666"
     borderopacity="1.0"
     inkscape:pageopacity="0.0"
     inkscape:pageshadow="2"
     inkscape:zoom="0.35"
     inkscape:cx="350"
     inkscape:cy="520"
     inkscape:document-units="px"
     inkscape:current-layer="layer1"
     showgrid="false"
     inkscape:window-width="593"
     inkscape:window-height="485"
     inkscape:window-x="455"
     inkscape:window-y="227"
     inkscape:window-maximized="0" />
  <metadata
     id="metadata3318">
    <rdf:RDF>
      <cc:Work
         rdf:about="">
        <dc:format>image/svg+xml</dc:format>
        <dc:type
           rdf:resource="http://purl.org/dc/dcmitype/StillImage" />
        <dc:title></dc:title>
      </cc:Work>
    </rdf:RDF>
  </metadata>
  <g
     inkscape:label="Ebene 1"
     inkscape:groupmode="layer"
     id="layer1">
    <path
       d="m 449.32473,345.50305 c 21.9775,-8.515 42.94875,5.9225 60.97625,17.04625 8.25125,5.0925 16.5475,9.795 24.39,15.5125 26.46875,19.30125 48.37875,43.8725 66.56625,70.90375 12.8575,19.10625 23.93625,40.78125 25.59625,64.19875 0.34625,4.9125 0.80625,11.03 -0.23,15.86 -0.83,3.87125 -2.85625,7.3975 -3.66125,11.3275 -1.23125,5.98625 -1.455,12.22125 -3.0225,18.125 -1.08375,4.10125 -3.09125,7.505 -4.825,11.32875 -1.67375,3.69625 -2.71875,7.65625 -4.4475,11.3275 -2.8325,6.00625 -6.74875,11.49375 -9.82875,17.37375 -4.67375,8.92 -7.37375,17.41125 -17.36375,21.9775 -8.39875,3.8325 -17.32375,2.41125 -25.9175,4.78 -5.015,1.38625 -7.28625,6.5775 -12.955,6.68 -12.03125,0.21375 -24.61875,-1.47 -36.58625,-2.6025 -4.44875,-0.42 -10.89375,-2.115 -15.23,-0.9625 -4.18,1.10875 -3.8225,5.2 -3.8275,8.6425 0,8.2525 -1.11875,16.885 -5.50375,24.17 -3.25625,5.405 -9.6675,8.58375 -15.0775,11.50375 -9.94125,5.36125 -19.42875,10.3375 -30.48875,13.06125 -8.34875,2.05125 -16.68375,2.085 -25.15125,1.88 -13.745,-0.33625 -27.1575,-2.1925 -40.4,-6.08375 -8.71125,-2.55875 -17.12,-7.3 -25.91375,-9.31625 -3.51,-0.80625 -7.7875,-0.24375 -11.43,-0.49375 -3.945,-0.26375 -7.505,-0.97625 -11.43625,0.005 -6.3425,1.5825 -10.87875,9.9075 -15.3125,14.2975 -6.225,6.17125 -14.09625,10.0825 -20.5125,15.99625 -2.8125,2.5925 -5.56625,5.32625 -8.04625,8.24125 -9.78125,11.475 -18.60375,25.69875 -35.40125,26.4025 -3.76875,0.15625 -7.3525,-0.26875 -10.65875,-2.2025 -4.8,-2.8075 -8.46125,-7.89625 -7.33875,-13.62875 1.015,-5.195 6.32375,-9.76 8.97,-14.35 3.56875,-6.19625 7.31875,-12.3825 10.3175,-18.88125 1.7275,-3.73125 2.88,-7.69625 4.80875,-11.32875 -6.1425,-2.84625 -10.5175,-6.84125 -13.6325,-12.8375 -1.3625,-2.62125 -2.51,-9.21375 -5.59125,-10.25875 -1.7325,-0.585 -3.59375,0.68375 -5.165,1.22625 -2.2075,0.75625 -4.56125,1.04 -6.86125,1.42125 -9.19375,1.50375 -18.1925,1.88375 -27.44125,0.67875 -9.19875,-1.20625 -19.99,-5.88375 -25.58125,-13.4625 -3.34,-4.52125 -2.12875,-10.0925 -7.96375,-13.07125 -8.95,-4.57 -20.9375,1.23 -28.87625,-5.97625 -5.03,-4.57 -8.09625,-12.1825 -11.51875,-17.95875 -9.9075,-16.71 -20.849995,-37.31 -18.916245,-57.3975 0.5075,-5.3325 1.337495,-10.835 3.242495,-15.86 2.1575,-5.6975 5.5175,-11.27875 6.31375,-17.3675 1.1075,-8.4475 -2.51,-16.41125 -0.0888,-24.9275 1.69,-5.9425 5.79625,-11.08875 8.49625,-16.61125 4.4575,-9.12625 8.11,-18.53 13.50625,-27.1925 2.86625,-4.59875 6.7575,-8.4075 9.84375,-12.83625 2.76375,-3.955 4.0625,-8.69125 6.47875,-12.8375 3.4725,-5.9525 7.935,-11.47 12.51,-16.61625 11.42125,-12.85625 25.66875,-22.92 39.41375,-33.135 7.8475,-5.83 15.40625,-12.54375 23.62875,-17.8075 5.9325,-3.79375 12.74875,-6.5375 19.0575,-9.6625 12.885,-6.3825 25.9475,-12.4125 39.63375,-16.93375 11.11375,-3.6675 22.51,-7.685 34.30125,-8.49125 5.845,-0.395 12.5,-0.63 18.29125,0.26375 3.92625,0.61 7.57375,2.23625 11.43625,2.92 4.59375,0.81 9.15,-2.11875 13.72,-2.295 7.525,-0.28875 15.55625,1.015 22.86625,2.73375 3.345,0.78625 9.0575,1.3575 11.64125,3.755 2.74375,2.54 2.33375,7.3975 7.09875,7.72 4.74625,0.3225 9.34625,-3.135 14.03375,-3.69625 12.1,-1.455 30.005,3.88625 35.06375,15.7225 z"
       style="fill:#000000;fill-opacity:1;fill-rule:nonzero;stroke:none"
       id="path2879" />
    <path
       d="m 449.32473,350.7968 0.76125,0 c 7.73375,-9.9225 19.0625,-6.3675 28.965,-2.03125 10.7225,4.69625 20.33625,10.74125 30.48875,16.47875 4.4725,2.53 9.31625,4.395 13.72,7.05125 6.50375,3.925 12.55875,8.8525 18.29125,13.78375 5.99125,5.15625 12.475,9.96625 18.07625,15.5375 6.38125,6.3475 11.7525,13.97875 17.45125,20.9275 11.465,13.975 22.6125,28.0325 31.44,43.80375 6.17625,11.035 10.7175,22.35875 13.2175,34.74625 0.7425,3.68125 1.93875,7.55375 2.03625,11.3275 0.0588,2.28125 -0.5325,4.5225 -0.635,6.7975 -0.15125,3.47125 0.40625,7.14875 -0.32625,10.57125 -0.82125,3.8525 -2.6325,7.3925 -3.29625,11.3275 -1.055,6.26 -0.86,12.8125 -2.9,18.8825 -2.05625,6.10375 -6.245,11.05 -7.98875,17.3725 l -0.76125,0 0,-2.265 -3.0475,0 c 0.80125,-5.9225 1.45,-14.44875 8.38375,-15.865 l -0.76125,2.26625 c 4.345,-4.21375 2.7775,-11.87 3.04625,-17.36875 l -0.76125,0 c -2.1975,9.16 -8.31,16.5775 -13.58875,24.17 -1.865,2.67625 -2.56375,5.86 -4.7075,8.30625 l -0.76125,-2.26625 -4.57,-1.50875 -3.0525,1.50875 c 2.6325,3.37875 4.76125,5.1475 9.15,5.28875 -1.35625,4.61875 -8.33375,6.5625 -12.83125,4.83375 -4.42375,-1.70875 -6.60625,-5.5325 -3.94,-9.365 -7.48125,0.815 -9.96625,-7.31 -13.97,-12.085 -5.5175,-6.5875 -13.8875,-8.79875 -17.28,-17.37375 l 5.33625,-2.265 0,-0.7525 -12.1975,-3.0225 0,3.0225 -8.38375,-1.51375 4.575,-4.53125 -1.5225,-3.0225 -3.0525,-0.75125 0,-0.7575 3.81375,-3.77375 -5.3375,0 0,-1.51375 3.0475,-0.7525 c -2.1925,-6.23 5.1025,-10.4875 8.38375,-15.1075 -4.98,0.7425 -11.9575,5.90375 -15.24375,0 l -23.62875,1.51375 c 2.52,9.87375 12.6175,15.37625 17.28125,24.165 3.1925,6.01625 2.52875,12.3975 1.90375,18.8825 -0.9325,9.6925 -2.7875,18.25125 -6.885,27.1875 -2.11375,4.61375 -5.64375,12.03125 -10.77625,13.59375 l 3.0525,15.86375 19.81375,3.4425 7.6275,0.15625 9.145,1.685 0,-0.7525 -10.67375,-3.28625 -25.15125,-6.5325 0.76125,-3.0225 1.52375,0 c 2.6175,2.44625 5.03875,1.9775 8.38375,2.65625 6.435,1.30375 12.4175,3.37375 19.0575,3.38875 4.42875,0.005 10.5175,-1.3675 12.95875,3.0175 5.45875,-2.76875 10.57125,2.44125 14.4825,-3.775 l 0.7625,0 0.76125,2.26625 6.86,-1.50875 -1.5225,-9.82 22.03125,-7.1725 10.74125,-14.73125 c -0.375,3.6225 -2.03625,6.52375 -3.48625,9.81875 -4.0675,9.22875 -9.94125,17.075 -17.095,24.17 l 2.28625,0.7525 0,0.75625 -22.86625,7.97875 -11.43125,1.00625 -7.08,-1.475 -9.6875,1.42625 -14.4825,0.12625 0.76125,-2.265 c -7.43625,-2.99875 -18.16875,-6.29375 -22.86625,2.265 l 9.14625,-2.265 c 2.97375,4.6775 11.07875,3.77375 16.00625,3.77375 l 0,0.7575 c -5.5225,0 -11.275,0.45375 -16.7675,-0.1325 -3.19875,-0.33625 -6.5975,-1.9375 -9.84,-1.26375 -8.6375,1.79625 -15.43875,7.42125 -23.70125,10.2775 -6.87,2.37375 -14.2275,1.895 -21.3375,2.57375 -12.41625,1.19125 -23.90125,5.63 -35.825,-0.5225 -2.8275,-1.46 -5.23375,-3.58375 -7.6225,-5.645 l 0,-0.75625 7.6175,-1.07875 5.3375,-1.1875 c -3.10125,-6.5375 -9.84875,-7.265 -15.21,-11.17625 -4.5125,-3.29125 -7.06125,-8.6525 -11.465,-12.23625 l 0,-0.7525 3.04625,-3.0225 c -4.83375,1.49 -7.53375,1.53875 -9.145,-3.77875 1.71375,0.0975 3.69625,-0.0975 5.33625,0.47875 4.55125,1.59625 10.5225,8.49125 8.38375,13.12 5.47875,1.60625 8.50125,5.795 14.4825,3.77375 l -17.20625,-18.8525 -7.95,-8.335 9.78625,6.11875 4.10125,5.89875 6.69375,7.61625 3.81375,-0.75125 c 2.74875,4.595 5.635,8.99875 10.66875,11.3275 l -1.52375,-3.0225 2.28625,2.26625 6.0975,-3.0225 -5.33625,3.0225 0,0.75625 c 2.05125,0.7325 3.88125,1.39625 6.09875,1.12375 3.07125,-0.37625 5.98625,-2.08 9.145,-1.5525 3.49125,0.575 6.695,2.93375 9.9125,4.30125 5.79125,2.45625 11.9525,4.11625 18.29125,3.60875 4.31125,-0.3475 14.94625,-4.5225 11.83125,-10.71375 -1.1475,-2.275 -4.35625,-2.03125 -6.495,-2.055 -4.78,-0.0538 -10.03875,-0.47875 -14.4825,-2.34375 -6.7775,-2.8475 -7.1825,-7.54375 -9.81375,-13.51625 -1.25,-2.83625 -2.95875,-5.35125 -3.90625,-8.31 l 5.33625,0.75625 -0.76125,3.775 1.52375,-2.26625 0.76125,0 c 2.45125,2.745 4.2875,2.74 7.6225,1.51375 l 4.33125,2.96875 1.7675,3.82875 c -3.00875,-0.79125 -4.57625,-0.50375 -6.09875,2.265 l 3.04625,-0.75625 -2.285,3.77875 -0.76125,0 0,-3.0225 -3.0475,4.53125 6.09375,0.7575 6.09875,-1.51375 5.36625,-0.205 15.97625,-1.30375 -1.5225,-2.26625 c 3.285,-1.39125 12.93875,-5.215 6.0975,-9.0625 l 0,-15.85875 6.9975,6.79625 -1.40125,6.04 -0.26375,6.7975 c 2.4075,-2.6075 2.95375,-7.285 4.75125,-10.57125 4.73125,-8.6475 13.78875,-18.89625 9.73125,-29.45875 l -0.76125,0 -1.52375,2.26625 -0.76125,0 c -1.8075,-2.06125 -4.415,-6.93375 -7.58375,-6.8025 -2.52,0.1075 -4.18875,2.56875 -6.90375,2.58875 -2.6125,0.0188 -7.525,-2.01625 -8.96,1.3175 -1.07,2.49625 1.5575,7.1 2.10375,9.6925 -5.03875,2.24625 -6.88,4.75625 -8.38375,9.82 l -1.5225,-1.50875 -0.7625,0 0,4.53125 c -4.30625,2.705 -2.64625,6.9475 0,10.57125 l -5.33625,-1.50875 -0.7625,2.265 -13.72,-3.0225 5.33625,-15.1025 9.9075,7.55375 c -3.6275,-9.38875 -2.91,-19.32125 -6.5475,-28.69125 -1.29875,-3.335 -6.29,-6.645 -5.65,-10.5175 0.47375,-2.885 4.72625,-4.98 6.86,-6.5825 5.5425,-4.145 7.2275,-7.19125 5.3375,-13.87625 l -0.76125,0 -2.78375,5.25875 -7.88625,0.0288 0,-2.265 c -3.0225,0 -6.22,0.26875 -9.15,-0.605 -7.1725,-2.13875 -12.84625,-8.94625 -18.29125,-13.70625 -2.3775,-2.08 -7.34875,-4.2625 -8.68625,-7.12875 -1.7525,-3.765 0.88875,-10.035 1.065,-14.05875 -8.09625,6.295 -16.82625,4.2 -25.91875,1.265 -4.20875,-1.3625 -8.44625,-2.56375 -12.1925,-5.015 -2.3975,-1.56625 -3.945,-3.96375 -6.23,-5.62 -1.73875,-1.26375 -3.98,-1.50375 -5.5425,-3.03625 -2.92375,-2.87625 -2.62625,-9.18 -6.665,-10.9625 -1.82125,-0.805 -3.45125,0.57125 -5.19,0.91375 -2.1975,0.42875 -4.71625,-0.225 -6.86,-0.70375 -5.16625,-1.1425 -10.05375,-3.34 -15.245,-4.395 -3.03625,-0.615 -6.24,-0.004 -9.15,-1.21 -5.75625,-2.38375 -11.43,-6.51375 -16.7675,-9.75125 -0.6,1.86 -1.025,4.795 -2.715,6.02 -3.37375,2.45625 -11.19625,-0.3075 -14.81375,-1.205 -9.165,-2.27125 -16.62125,-8.0425 -24.39,-13.12125 -4.74625,-3.1 -9.85375,-5.63875 -13.72125,-9.8525 -3.545,-3.8625 -7.3925,-11.3825 -12.95375,-12.6425 -2.1725,-0.4925 -4.4775,1.22625 -3.71625,3.51625 0.47875,1.43 1.7875,2.5825 2.46625,3.94 1.46,2.91 2.4125,5.67375 4.54625,8.2375 4.08625,4.9175 9.98,8.4625 12.705,14.35 4.01875,-0.0575 6.42125,3.375 9.145,6.04125 3.38875,3.315 7.04625,6.3325 10.67375,9.38375 2.09,1.75875 4.14125,3.90125 6.86125,4.63875 4.2325,1.1475 9.345,0.85 13.72,1.1525 8.09625,0.56125 16.42125,1.3575 24.39,2.95375 7.65625,1.53875 15.07375,3.785 22.10375,7.16875 2.89625,1.39125 5.43,3.47625 8.385,4.74625 2.19625,0.9425 4.58875,0.9125 6.86,1.60625 4.50625,1.37625 9.4925,3.515 13.72,5.57625 4.39,2.14375 8.09125,5.9225 12.1925,8.58875 5.1375,3.33 10.5275,6.39625 16.00625,9.135 2.47125,1.23125 6.1475,2.36875 7.5975,4.87875 1.675,2.885 -0.4975,6.06875 -1.1425,8.90125 -0.44375,1.92375 -0.1125,3.4325 0.405,5.2875 0.77125,-1.1375 1.47,-2.3925 2.5925,-3.23625 6.71875,-5.035 13.70625,2.12875 18.75,5.575 3.71625,2.54 7.69625,4.7125 11.43625,7.2325 3.27125,2.20125 7.96875,5.0825 9.8875,8.6225 1.695,3.13 1.30375,10.1175 0.48375,13.51125 -0.3325,1.36625 -0.9425,2.7 -2.29,3.335 -3.53,1.67375 -9.0625,-0.36625 -12.65625,-1.055 -0.23,-2.98375 -0.85,-4.395 -3.80875,-5.28875 l 1.52375,4.53125 c -5.68875,-1.87 -6.5925,2.3975 -11.43625,4.0725 -2.9,1.00625 -5.12625,-0.6975 -7.62125,-1.86 -3.75,-1.74875 -6.5675,-2.54875 -9.14625,-5.98625 l 3.81375,-1.50875 0,-0.7575 -2.29,-6.79625 c -2.75375,-0.5425 -4.9275,-2.46125 -7.6225,-2.95 -1.69375,-0.3025 -3.49625,0.50875 -5.0925,-0.39 -3.78875,-2.12875 -0.17125,-6.10875 2.77875,-6.465 2.8025,-0.34125 5.4,1.66 8.4125,1.49875 l -7.6225,-7.55375 c 0.80625,-4.15 -3.07125,-4.29125 -6.1075,-5.4 -1.64125,-0.6 -3.13,-1.72375 -4.85875,-2.075 -3.73,-0.77125 -7.53375,2.5825 -9.61375,5.21 l -12.955,1.665 -10.67375,-6.19625 0.7625,-2.26625 -16.7675,-13.59375 0.76125,-2.265 -9.9075,-11.33375 c -0.88375,2.14875 -1.66,5.3525 -3.47625,6.905 -4.76125,4.0825 -13.50625,-0.35125 -18.6275,-1.265 -4.85375,-0.86375 -9.59,-0.25875 -14.4825,-1.46 -2.76375,-0.67875 -4.42375,-2.83625 -6.9925,-3.69625 -2.46125,-0.82 -4.995,0.655 -7.49,0.5175 -3.94125,-0.22 -7.35875,-2.48 -11.43625,-2.485 -8.70125,-0.015 -16.1175,4.83875 -24.38875,6.62625 -5.40125,1.16625 -15.05875,-2.76375 -18.29125,2.41125 l -13.72125,-2.5 -9.145,-5.0725 -6.09875,-3.36 -6.86,1.11375 0,1.51375 c 1.92875,0.9525 3.65625,2.01125 5.33625,3.37375 1.28375,1.04 2.54875,2.15375 3.59875,3.4325 6.3375,7.73 -5.195,11.7625 -9.6975,16.60625 l -0.76125,0 c -7.79375,-4.545 -11.83625,7.4075 -16.83625,10.7575 -1.29875,0.86875 -2.8075,0.98125 -4.185,1.63125 -2.10875,0.99 -3.8125,3.44625 -6.42,2.905 -2.8525,-0.59625 -4.6825,-3.30125 -7.6225,-3.965 l 0,1.50875 2.285,0.75625 0,4.53125 0,0.7575 -1.52375,3.0175 3.0525,-0.7525 -9.15,13.59375 c -4.11625,0.39125 -4.5125,2.87625 -6.63625,5.91375 -1.5775,2.255 -2.97875,3.35375 -3.27125,6.16625 l -5.3375,2.26625 3.0525,0 0,0.75625 -6.09875,3.78 3.49125,3.76 4.8925,6.81125 -10.66875,-2.33875 -14.4825,-7.48125 3.80875,8.31125 c 4.2225,2.1875 4.29125,6.37125 5.33625,10.57125 l 1.52375,-2.26625 0.76125,0 c 2.535,3.28625 4.94125,5.9575 9.14625,6.7975 l 0,0.75625 c -4.7175,0 -9.46875,0.435 -13.6875,-2.06 -7.95875,-4.7125 -9.71125,-15.5525 -12.245,-23.61875 -2.58875,-8.2375 -6.43125,-14.63875 -12.94,-20.39 l 1.30375,11.3275 0.415,5.60625 6.665,22.33875 3.05125,-1.51375 c 0.15125,6.37625 3.60375,10.21 8.38375,14.165 2.925,2.41625 5.225,4.4575 9.14625,3.965 1.45,4.38875 7.23625,10.2 12.1975,9.0625 l 0,0.75125 c -3.98,2.51 -7.4125,5.04375 -8.38375,9.82 -7.2175,-0.38625 -10.07875,-5.0925 -13.72625,-10.57125 -3.6175,-5.445 -6.93375,-10.97625 -10.22875,-16.61625 -5.28875,-9.0475 -9.82,-18.6375 -12.74,-28.70125 -0.9175,-3.15875 -2.5875,-6.49375 -2.67625,-9.82 -0.0875,-3.46625 0.7825,-7.13875 1.255,-10.57125 1.12875,-8.115 2.535,-16.30875 4.9075,-24.17 1.075,-3.545 2.98375,-6.9425 3.75,-10.57125 0.67875,-3.24125 -0.605,-6.5675 -0.68875,-9.81875 -0.12125,-5.1125 0.82125,-10.225 2.26625,-15.1025 2.73,-9.21375 7.8175,-17.305 12.3975,-25.67875 2.94875,-5.39125 5.27375,-11.48875 8.59875,-16.61625 2.09,-3.2225 5,-5.83 7.11375,-9.0625 5.67375,-8.68125 8.51625,-19.18 15.25875,-27.1875 7.89625,-9.375 19.395,-16.32875 28.71625,-24.2675 13.78875,-11.74375 27.84125,-23.4675 43.4475,-32.7925 8.57875,-5.1275 17.72375,-8.32625 26.67875,-12.6175 19.05875,-9.14125 40.37625,-18.0475 61.73875,-20.06875 6.655,-0.63 14.03875,-0.5275 20.58125,0.84 3.56375,0.7475 7.03125,2.98375 10.66875,3.17375 4.11125,0.215 8.79875,-1.92375 12.95875,-2.4175 8.365,-0.99125 20.44,-0.43375 28.18875,3.08125 4.77,2.16375 4.65875,7.74 9.14125,10.19625 2.71875,1.48875 5,0.009 7.64625,-0.845 3.15875,-1.01625 6.59625,-1.63125 9.9025,-1.94875 8.99875,-0.85875 22.1475,2.1 28.6475,8.69625 2.3675,2.4025 3.35875,6.3375 4.8925,9.3025 z"
       style="fill:#ffffff;fill-opacity:1;fill-rule:nonzero;stroke:none"
       id="path2881" />
    <path
       d="m 279.34848,361.37305 -7.62125,-9.0625 c 4.995,-0.70875 7.875,4.60375 7.62125,9.0625 z"
       style="fill:#000000;fill-opacity:1;fill-rule:nonzero;stroke:none"
       id="path2883" />
    <path
       d="m 421.12098,366.66055 -2.285,12.08 -0.76125,0 c 0,-4.41375 -0.02,-8.60875 3.04625,-12.08 z"
       style="fill:#000000;fill-opacity:1;fill-rule:nonzero;stroke:none"
       id="path2885" />
    <path
       d="m 392.15598,385.53805 c 4.7225,2.83125 3.00375,7.25 0.9525,11.3275 -3.39375,6.7525 -7.735,17.5925 -15.435,20.47375 -5.97125,2.23625 -11.245,-2.95375 -16.7675,-4.21375 -5.65875,-1.28875 -11.22,-1.18625 -16.7675,-3.365 -11.30875,-4.4375 -20.7125,-13.6325 -28.38875,-22.71 -3.2325,-3.8225 -6.70875,-7.6025 -8.96,-12.08375 4.74125,1.1125 9.7225,3.07125 13.49125,6.215 1.88,1.5725 2.8125,3.89125 4.84375,5.3375 3.80875,2.715 9.38,3.8175 13.6775,5.7125 7.905,3.48625 15.23875,6.80125 23.6275,9.0525 2.76375,0.7425 6.265,2.28 9.145,1.92375 3.96,-0.4825 8.97,-4.0475 12.1975,-6.26875 4.11125,-2.8225 7.48125,-6.45125 8.38375,-11.40125 z"
       style="fill:#000000;fill-opacity:1;fill-rule:nonzero;stroke:none"
       id="path2887" />
    <path
       d="m 241.99973,387.05055 9.9075,17.36875 c -5.14625,-1.87 -6.5875,-4.38 -8.58375,-9.13125 -1.12875,-2.685 -2.34375,-5.41 -1.32375,-8.2375 z"
       style="fill:#000000;fill-opacity:1;fill-rule:nonzero;stroke:none"
       id="path2889" />
    <path
       d="m 466.85348,390.82555 -0.56625,6.7975 -9.34125,9.0625 c -1.40125,-4.835 0.99625,-12.16875 6.86125,-12.085 l 3.04625,-3.775 z"
       style="fill:#000000;fill-opacity:1;fill-rule:nonzero;stroke:none"
       id="path2891" />
    <path
       d="m 504.96348,396.11305 -0.76125,5.28875 -5.3375,-3.0225 6.09875,-2.26625 z"
       style="fill:#000000;fill-opacity:1;fill-rule:nonzero;stroke:none"
       id="path2893" />
    <path
       d="m 197.79098,401.4018 -1.52375,6.04 -10.66875,-1.50875 0,-0.7575 12.1925,-3.77375 z"
       style="fill:#000000;fill-opacity:1;fill-rule:nonzero;stroke:none"
       id="path2895" />
    <path
       d="m 330.41848,406.68555 0,6.04375 -0.7625,0 0.7625,-6.04375 z"
       style="fill:#000000;fill-opacity:1;fill-rule:nonzero;stroke:none"
       id="path2897" />
    <path
       d="m 431.02848,411.2168 c -4.77125,8.1825 -14.4,12.9775 -18.0125,21.90375 -1.74375,4.31125 2.55375,10.48375 7.34375,10.68875 2.475,0.1075 5.06375,-1.46 7.62125,-1.62625 2.32,4.71625 9.0625,11.07375 14.4825,11.92375 4.83875,0.75625 9.63375,-0.88375 14.4825,-0.5275 5.07375,0.37125 8.4475,4.585 12.945,0.60125 7.705,-6.8175 7.01125,-18.77 15.25875,-24.83875 -1.7975,5.4725 -2.26625,11.17625 -3.98,16.615 -2.52375,7.99875 -5.83,14.05875 -5.17125,22.66125 -4.37875,0.48375 -6.38625,2.69125 -7.62125,6.7975 l -25.91375,-9.83375 -22.10375,-3.765 c -0.3125,-2.95375 1.29375,-7.04125 -0.0537,-9.6875 -1.21125,-2.3925 -4.12625,-4.33125 -6.045,-6.1625 -9.55625,-9.11125 -25.60125,-14.20875 -30.48875,-27.1975 6.7775,-4.0575 15.42,1.05 22.86625,0.28875 2.3875,-0.24375 4.16,-2.11875 6.09875,-3.34 5.405,-3.39375 11.91375,-7.4125 18.29125,-4.50125 z"
       style="fill:#000000;fill-opacity:1;fill-rule:nonzero;stroke:none"
       id="path2899" />
    <path
       d="m 499.63223,413.4818 c -2.3875,4.54125 -6.22625,6.74375 -10.67375,9.0625 1.9475,-4.98 5.43375,-7.93 10.67375,-9.0625 z"
       style="fill:#000000;fill-opacity:1;fill-rule:nonzero;stroke:none"
       id="path2901" />
    <path
       d="m 455.42348,415.74805 -3.81375,11.3275 -0.7625,0 4.57625,-11.3275 z"
       style="fill:#000000;fill-opacity:1;fill-rule:nonzero;stroke:none"
       id="path2903" />
    <path
       d="m 196.26723,418.7693 c 1.83625,6.3575 5.665,8.59875 10.66875,12.54 2.96875,2.32875 6.065,5.17 9.9125,5.9075 2.24625,0.435 4.605,-0.14625 6.86,-0.3225 0.50375,11.64125 4.21,23.91625 13.71625,31.32875 6.49375,5.06375 15.24875,7.5925 20.58125,13.98875 -8.4275,-0.005 -19.93625,-1.3525 -25.5125,-8.32 -7.05125,-8.81375 -6.04,-26.5775 -20.98125,-26.40625 -2.06625,0.02 -4.13625,0.25875 -6.09875,0.9275 -4.9075,1.675 -8.07125,5.99625 -12.1925,8.8725 1.7675,-4.4825 5.65375,-7.64125 9.9075,-9.815 l -6.64125,-20.395 -0.22,-8.30625 z"
       style="fill:#000000;fill-opacity:1;fill-rule:nonzero;stroke:none"
       id="path2905" />
    <path
       d="m 161.96598,442.18305 c -3.08125,-0.99125 -3.53,-3.0025 -3.80875,-6.04 2.905,1.38625 4.0875,2.7975 3.80875,6.04 z"
       style="fill:#000000;fill-opacity:1;fill-rule:nonzero;stroke:none"
       id="path2907" />
    <path
       d="m 527.06848,439.16055 0.76125,9.0625 -0.76125,0 0,-9.0625 z"
       style="fill:#000000;fill-opacity:1;fill-rule:nonzero;stroke:none"
       id="path2909" />
    <path
       d="m 192.45473,458.7993 -4.61,12.83625 -2.78375,5.26375 -12.42125,0.0937 -9.145,2.22125 -6.86125,2.4125 -9.91125,-5.46 11.435,-4.165 16.00625,-3.86125 18.29125,-9.34125 z"
       style="fill:#000000;fill-opacity:1;fill-rule:nonzero;stroke:none"
       id="path2911" />
    <path
       d="m 543.83598,473.9018 0,1.51375 -21.3375,12.66625 -9.15125,6.86 -5.26375,2.36375 -10.74125,7.5625 c -3.36,-5.84375 -8.19375,-10.385 -12.96,-15.1075 -4.48125,-4.4425 -8.44625,-7.86125 -9.145,-14.345 l 2.29,3.0175 3.0475,-2.26625 -0.7625,2.26625 5.3375,0 0,-3.0175 c 4.42875,2.3 6.1125,3.18375 6.855,8.305 l 1.52875,0 c 2.96875,-4.52125 9.2625,0.27875 13.72,-0.75125 11.23625,-2.5975 17.95,-12.8275 30.48875,-11.19125 2.1975,0.2875 4.11125,1.20625 6.09375,2.12375 z"
       style="fill:#000000;fill-opacity:1;fill-rule:nonzero;stroke:none"
       id="path2913" />
    <path
       d="m 477.52723,478.43305 c -0.26875,0.5275 -0.76625,1.62125 -0.76625,0 l 0.76625,0 z"
       style="fill:#ffffff;fill-opacity:1;fill-rule:nonzero;stroke:none"
       id="path2915" />
    <path
       d="m 591.09723,481.45555 c 7.43125,6.3725 20.3075,9.92625 20.57625,21.1475 -2.92,0.76625 -6.065,2.03625 -9.13125,1.27 -5.64,-1.41625 -6.65,-9.53125 -8.20875,-14.1125 -0.94125,-2.7725 -3.3975,-5.41875 -3.23625,-8.305 z"
       style="fill:#000000;fill-opacity:1;fill-rule:nonzero;stroke:none"
       id="path2917" />
    <path
       d="m 369.28973,485.2293 -1.5225,3.0225 -0.7625,0 0,-3.0225 2.285,0 z"
       style="fill:#000000;fill-opacity:1;fill-rule:nonzero;stroke:none"
       id="path2919" />
    <path
       d="m 565.17848,489.0093 c -2.42125,10.5025 -1.17125,25.425 8.38375,32.475 l 2.45625,8.40375 -0.16625,6.69875 c -1.7525,0.25 -4.77,1.465 -6.40125,0.48375 -1.435,-0.86375 -1.025,-2.895 -0.96125,-4.2625 0.13625,-3.08125 -0.26375,-6.1575 -1.3775,-9.0575 -1.9775,-5.15125 -5.3025,-9.7175 -6.68875,-15.1075 -1.45625,-5.65875 1.09375,-15.1325 4.755,-19.63375 z"
       style="fill:#000000;fill-opacity:1;fill-rule:nonzero;stroke:none"
       id="path2921" />
    <path
       d="m 184.06973,493.54055 0,3.0175 -1.5225,0 0,-3.0175 1.5225,0 z"
       style="fill:#000000;fill-opacity:1;fill-rule:nonzero;stroke:none"
       id="path2923" />
    <path
       d="m 302.21473,516.95305 14.4825,-0.825 11.435,0.50375 15.245,1.26375 16.005,9.7075 9.14625,8.34 12.1975,4.70125 19.0525,11.9 12.1975,5.14125 7.62125,5.1375 12.1925,7.75375 -2.285,0.75125 1.52375,3.0225 -2.285,1.50875 -0.7625,0 c -3.70125,-3.0175 -6.9775,-1.90875 -10.66875,0.7575 l -0.76625,0 c -3.71125,-2.8125 -6.9725,-4.04375 -11.43125,-2.26625 l 0.7625,-3.0225 c -3.41375,-1.5225 -9.16,-2.92375 -9.9075,-6.79625 l -9.15,-1.50875 3.05125,-3.78 -7.6225,-1.50875 -0.76125,2.26625 -0.76125,0 -5.3375,-2.26625 c 0.79625,-4.08125 -5.56625,-6.5475 -8.38375,-8.8175 -5.06375,-4.0875 -11.3675,-8.10625 -17.53375,-10.28875 -6.41125,-2.275 -13.29625,-2.9925 -19.815,-5.06375 -2.1675,3.9025 -9.63875,4.98625 -13.72,3.78 l 0.76125,3.0225 -4.575,0 c 0.89375,-3.70625 0.02,-5.26875 -3.80875,-6.045 l 3.0475,3.77875 c -2.45125,-0.0625 -4.7325,-0.17 -6.695,-1.84 -3.80875,-3.2325 -5.9275,-14.12625 -11.80625,-7.03625 -0.7325,0.88375 -0.9375,1.7825 -1.31375,2.83125 l -6.09875,0.7575 c -1.845,-3.35 -7.31875,-5.5425 -11.21625,-5.205 -1.90375,0.16625 -3.6275,1.1525 -5.55625,1.3475 -6.3375,0.635 -12.1575,-0.2 -17.52875,3.8575 l -0.7625,0 c -2.64625,-0.84 -4.8825,0.46375 -7.62125,0.68375 -4.1025,0.33125 -8.12,-0.1225 -12.1925,0.67875 -6.7925,1.3375 -12.03625,4.31125 -19.0575,2.41125 -1.19625,3.6525 -2.4225,4.46375 -6.09875,3.0225 -1.62625,6.32375 -9.94625,10.03 -16.00625,8.30625 l -0.76125,3.77875 -1.52375,-1.51375 -0.76125,0 -1.52875,1.51375 c 4.32125,-11.30875 14.4725,-19.62875 22.86625,-27.94375 3.17375,-3.145 6.89875,-8.4525 11.435,-9.58 8.6575,-2.14875 16.09875,3.39375 24.39,3.88125 4.59,0.26875 10.23,-2.96875 14.4825,-4.555 9.92625,-3.71125 19.19875,-6.22125 29.72625,-7.33 3.60375,-0.38 9.73125,-0.62 12.5,2.25125 1.83625,1.91 1.51875,6.045 1.9825,8.535 z"
       style="fill:#ffffff;fill-opacity:1;fill-rule:nonzero;stroke:none"
       id="path2925" />
    <path
       d="m 126.14598,513.1743 c 2.84125,4.2725 4.92125,9.13125 9.90625,11.3525 5.035,2.24125 13.18375,1.3625 17.07125,5.7475 3.97375,4.48625 -3.38375,9.335 -7.16375,10.0925 -3.06125,-9.5075 -10.5275,-9.73125 -19.0525,-9.0675 l 0.47375,-9.0625 -1.235,-9.0625 z"
       style="fill:#000000;fill-opacity:1;fill-rule:nonzero;stroke:none"
       id="path2927" />
    <path
       d="m 601.00348,520.72805 c -0.0925,10.9325 -4.84375,19.4725 -10.205,28.70125 -1.5225,2.6125 -2.13875,7.6125 -5.12125,8.96 -2.2025,0.99625 -4.76625,-0.60125 -6.7775,-1.41125 l 1.7625,-6.7975 8.90625,-11.3275 11.435,-18.125 z"
       style="fill:#000000;fill-opacity:1;fill-rule:nonzero;stroke:none"
       id="path2929" />
    <path
       d="m 594.14348,521.4843 c 1.28875,5.62 -2.10375,8.58875 -5.33625,12.8375 -3.0325,-5.03 0.0337,-11.01125 5.33625,-12.8375 z"
       style="fill:#000000;fill-opacity:1;fill-rule:nonzero;stroke:none"
       id="path2931" />
    <path
       d="m 387.58598,524.5018 c -0.26875,0.5275 -0.76625,1.62125 -0.76625,0 l 0.76625,0 z"
       style="fill:#000000;fill-opacity:1;fill-rule:nonzero;stroke:none"
       id="path2933" />
    <path
       d="m 386.05723,525.2593 0,0.75625 -3.04625,0.7525 0,-0.7525 3.04625,-0.75625 z"
       style="fill:#000000;fill-opacity:1;fill-rule:nonzero;stroke:none"
       id="path2935" />
    <path
       d="m 618.53348,532.05555 c -0.26375,0.5225 -0.7625,1.62125 -0.7625,0 l 0.7625,0 z"
       style="fill:#000000;fill-opacity:1;fill-rule:nonzero;stroke:none"
       id="path2937" />
    <path
       d="m 537.74223,532.81305 c -0.26875,0.5225 -0.76125,1.62125 -0.76125,0 l 0.76125,0 z"
       style="fill:#000000;fill-opacity:1;fill-rule:nonzero;stroke:none"
       id="path2939" />
    <path
       d="m 617.40973,535.3418 -0.0675,0.16125 0.0675,-0.16125 z"
       style="fill:#000000;fill-opacity:1;fill-rule:nonzero;stroke:none"
       id="path2941" />
    <path
       d="m 616.64848,539.1168 -0.0688,0.16125 0.0688,-0.16125 z"
       style="fill:#000000;fill-opacity:1;fill-rule:nonzero;stroke:none"
       id="path2943" />
    <path
       d="m 607.86473,538.10055 c -0.0588,5.015 -2.1825,8.19875 -6.09875,11.32875 l 0.76125,-3.0225 -6.09875,3.77375 3.0525,-7.54875 8.38375,-4.53125 z"
       style="fill:#000000;fill-opacity:1;fill-rule:nonzero;stroke:none"
       id="path2945" />
    <path
       d="m 423.40598,538.10055 0.7625,6.7975 -6.09375,-5.28875 5.33125,-1.50875 z"
       style="fill:#000000;fill-opacity:1;fill-rule:nonzero;stroke:none"
       id="path2947" />
    <path
       d="m 569.75348,539.6093 0.7625,3.0225 -6.86125,1.50875 6.09875,-4.53125 z"
       style="fill:#000000;fill-opacity:1;fill-rule:nonzero;stroke:none"
       id="path2949" />
    <path
       d="m 615.88723,542.89055 -0.0687,0.16625 0.0687,-0.16625 z"
       style="fill:#000000;fill-opacity:1;fill-rule:nonzero;stroke:none"
       id="path2951" />
    <path
       d="m 543.83598,545.6493 -4.82875,7.28625 -10.415,4.79875 0,-0.75625 3.05125,-1.50875 0,-0.7575 -3.81375,1.51375 c -2.12375,-7.93375 10.435,-9.00875 16.00625,-10.57625 z"
       style="fill:#ffffff;fill-opacity:1;fill-rule:nonzero;stroke:none"
       id="path2953" />
    <path
       d="m 275.53973,556.97805 -13.72,-0.59625 -13.72125,3.61875 2.285,-3.775 -11.43,4.12625 -4.54625,-0.0775 -0.79125,-4.805 -11.435,8.305 2.29,-6.04 c -2.97875,1.01625 -4.46375,2.26625 -5.3375,5.28875 l -6.09875,3.0175 2.29,-4.53125 -9.15,6.045 3.0525,-5.28875 -14.4825,9.82 -5.3375,-4.53125 0,-0.7575 4.63875,-1.7475 6.79625,0.23875 -1.5275,-3.0225 6.09875,-3.0225 -0.7625,3.0225 5.3375,-5.2875 15.24375,-3.775 -0.76125,3.775 c 2.72375,-1.41625 3.47125,-3.0425 3.80875,-6.04 l 12.1975,-1.50875 c 2.1725,-2.66625 6.63,-2.695 9.90625,-3.06125 9.41,-1.05 20.68375,1.38125 25.15625,10.61 z"
       style="fill:#ffffff;fill-opacity:1;fill-rule:nonzero;stroke:none"
       id="path2955" />
    <path
       d="m 239.71473,549.4293 -0.76125,4.53125 -2.29,1.50875 -0.7625,0 -1.5225,-1.50875 0,-0.7575 5.33625,-3.77375 z"
       style="fill:#000000;fill-opacity:1;fill-rule:nonzero;stroke:none"
       id="path2957" />
    <path
       d="m 418.07473,550.18055 0.76125,3.78 -3.05125,-1.51375 2.29,-2.26625 z"
       style="fill:#ffffff;fill-opacity:1;fill-rule:nonzero;stroke:none"
       id="path2959" />
    <path
       d="m 251.14598,553.96055 c -0.26375,0.5225 -0.7625,1.61625 -0.7625,0 l 0.7625,0 z"
       style="fill:#000000;fill-opacity:1;fill-rule:nonzero;stroke:none"
       id="path2961" />
    <path
       d="m 527.82973,557.7343 c -0.26375,0.5225 -0.76125,1.62125 -0.76125,0 l 0.76125,0 z"
       style="fill:#ffffff;fill-opacity:1;fill-rule:nonzero;stroke:none"
       id="path2963" />
    <path
       d="m 270.96473,563.02305 -9.145,2.62125 -9.14625,1.85625 -7.62625,4.145 -7.6225,1.94875 c 1.53875,-2.97375 4.0875,-4.4675 6.86,-6.29375 6.93375,-4.54625 19.33625,-11.71375 26.68,-4.2775 z"
       style="fill:#ffffff;fill-opacity:1;fill-rule:nonzero;stroke:none"
       id="path2965" />
    <path
       d="m 277.06348,567.5543 -9.145,2.84625 -9.9125,0.9275 11.435,-5.625 5.16125,-1.3125 2.46125,3.16375 z"
       style="fill:#ffffff;fill-opacity:1;fill-rule:nonzero;stroke:none"
       id="path2967" />
    <path
       d="m 530.11973,566.7968 0,0.7575 -5.33625,1.50875 5.33625,-2.26625 z"
       style="fill:#ffffff;fill-opacity:1;fill-rule:nonzero;stroke:none"
       id="path2969" />
    <path
       d="m 499.63223,567.5543 1.5225,5.2875 -3.05125,-5.2875 1.52875,0 z"
       style="fill:#ffffff;fill-opacity:1;fill-rule:nonzero;stroke:none"
       id="path2971" />
    <path
       d="m 286.97098,569.06305 1.52375,3.77875 -12.1925,1.50875 0,-0.75625 1.5225,-3.0175 9.14625,-1.51375 z"
       style="fill:#ffffff;fill-opacity:1;fill-rule:nonzero;stroke:none"
       id="path2973" />
    <path
       d="m 181.02348,569.06305 -0.76125,2.265 0.76125,0.7575 4.575,-2.26625 0,1.50875 3.0475,-1.50875 -6.09875,10.57125 -0.7625,0 2.285,-7.54875 -0.76125,0 -9.40875,8.375 -3.47625,8.23625 -6.1675,12.8425 -0.76125,0 5.33125,-15.86 c -9.94625,8.785 -10.185,26.31875 -10.66875,38.51625 l 9.145,-7.55375 -5.33625,11.3275 c -5.23,-3.4275 -9.785,-8.6075 -10.47875,-15.1025 -0.46375,-4.35 1.7725,-9.6475 3.41375,-13.59375 3.35375,-8.05125 7.275,-16.60125 13.955,-22.54875 1.58625,-1.41125 3.4325,-2.08 5.165,-3.2225 2.67625,-1.7625 3.79,-4.2575 7.0025,-5.195 z"
       style="fill:#ffffff;fill-opacity:1;fill-rule:nonzero;stroke:none"
       id="path2975" />
    <path
       d="m 274.77348,572.08555 0,2.265 -10.66875,2.26625 0,-0.7575 10.66875,-3.77375 z"
       style="fill:#ffffff;fill-opacity:1;fill-rule:nonzero;stroke:none"
       id="path2977" />
    <path
       d="m 461.44848,574.97055 c -0.0337,0.0587 -0.0737,0.1025 -0.0637,0 l 0.0637,0 z"
       style="fill:#ffffff;fill-opacity:1;fill-rule:nonzero;stroke:none"
       id="path2979" />
    <path
       d="m 593.35223,576.88055 -0.14625,0.16125 0.14625,-0.16125 z"
       style="fill:#ffffff;fill-opacity:1;fill-rule:nonzero;stroke:none"
       id="path2981" />
    <path
       d="m 292.30723,575.8593 0,0.7575 -3.05125,0.75625 0,-0.75625 3.05125,-0.7575 z"
       style="fill:#ffffff;fill-opacity:1;fill-rule:nonzero;stroke:none"
       id="path2983" />
    <path
       d="m 283.92348,575.8593 0,0.7575 c -5.6925,3.55875 -11.58125,5.26875 -18.295,5.2875 l 0,-0.75625 18.295,-5.28875 z"
       style="fill:#ffffff;fill-opacity:1;fill-rule:nonzero;stroke:none"
       id="path2985" />
    <path
       d="m 232.85473,576.6168 -0.7625,2.265 -0.76125,0 -0.76125,-2.265 2.285,0 z"
       style="fill:#ffffff;fill-opacity:1;fill-rule:nonzero;stroke:none"
       id="path2987" />
    <path
       d="m 228.27973,578.12555 0,0.75625 -16.00625,4.53125 c 4.2775,-4.28125 10.15625,-5.26875 16.00625,-5.2875 z"
       style="fill:#ffffff;fill-opacity:1;fill-rule:nonzero;stroke:none"
       id="path2989" />
    <path
       d="m 443.98723,582.6568 -14.4825,3.35875 -8.38375,4.195 8.38375,-6.29375 5.3375,-0.5425 9.145,-0.7175 z"
       style="fill:#ffffff;fill-opacity:1;fill-rule:nonzero;stroke:none"
       id="path2991" />
    <path
       d="m 233.61598,583.41305 -3.04625,1.50875 0,-0.75125 3.04625,-0.7575 z"
       style="fill:#ffffff;fill-opacity:1;fill-rule:nonzero;stroke:none"
       id="path2993" />
    <path
       d="m 294.59223,587.9443 0,0.7575 -19.81875,7.54875 c 1.11375,-1.475 2.07,-3.33 3.46625,-4.55625 4.0925,-3.58375 11.20125,-4.6525 16.3525,-3.75 z"
       style="fill:#ffffff;fill-opacity:1;fill-rule:nonzero;stroke:none"
       id="path2995" />
    <path
       d="m 307.55223,587.9443 c 0.74125,3.575 -0.1475,5.35625 -3.0525,7.55375 l 3.0525,-6.045 -3.0525,0 3.0525,-1.50875 z"
       style="fill:#ffffff;fill-opacity:1;fill-rule:nonzero;stroke:none"
       id="path2997" />
    <path
       d="m 280.87223,587.9443 0,0.7575 c -2.78875,0.63 -5.625,0.79625 -8.38375,1.38125 -4.585,0.9725 -13.38375,5.84 -16.00625,-0.63 l 24.39,-1.50875 z"
       style="fill:#ffffff;fill-opacity:1;fill-rule:nonzero;stroke:none"
       id="path2999" />
    <path
       d="m 215.32473,588.7018 c -0.2675,0.5225 -0.76625,1.61625 -0.76625,0 l 0.76625,0 z"
       style="fill:#ffffff;fill-opacity:1;fill-rule:nonzero;stroke:none"
       id="path3001" />
    <path
       d="m 465.25723,595.3618 c -0.03,0.0588 -0.0738,0.1025 -0.0638,0 l 0.0638,0 z"
       style="fill:#000000;fill-opacity:1;fill-rule:nonzero;stroke:none"
       id="path3003" />
    <path
       d="m 170.35473,598.51555 -3.0525,5.28875 -0.76125,0 3.81375,-5.28875 z"
       style="fill:#ffffff;fill-opacity:1;fill-rule:nonzero;stroke:none"
       id="path3005" />
    <path
       d="m 445.51098,613.62305 -3.80875,0.7575 0.76125,-2.26625 -7.62125,-0.75625 -6.86125,-3.0225 0,-3.0175 -3.04625,1.50875 c 0.79625,-3.12 0.5125,-5.1275 -3.0525,-5.28875 2.3975,-2.23625 4.81,-1.665 7.6225,-0.0825 5.35625,3.0125 12.25125,7.34375 16.00625,12.1675 z"
       style="fill:#ffffff;fill-opacity:1;fill-rule:nonzero;stroke:none"
       id="path3007" />
    <path
       d="m 295.35473,599.27305 0,0.75625 -9.14625,3.0225 0,-0.75625 9.14625,-3.0225 z"
       style="fill:#ffffff;fill-opacity:1;fill-rule:nonzero;stroke:none"
       id="path3009" />
    <path
       d="m 203.88973,599.27305 0,0.75625 -10.66875,3.0225 c 2.8125,-3.16375 6.62125,-3.27125 10.66875,-3.77875 z"
       style="fill:#ffffff;fill-opacity:1;fill-rule:nonzero;stroke:none"
       id="path3011" />
    <path
       d="m 163.13223,604.8243 -0.0675,0.16125 0.0675,-0.16125 z"
       style="fill:#ffffff;fill-opacity:1;fill-rule:nonzero;stroke:none"
       id="path3013" />
    <path
       d="m 584.99848,609.0918 -9.9075,5.28875 9.9075,-5.28875 z"
       style="fill:#000000;fill-opacity:1;fill-rule:nonzero;stroke:none"
       id="path3015" />
    <path
       d="m 162.72723,609.0918 -0.76125,4.53125 -0.76125,0 1.5225,-4.53125 z"
       style="fill:#ffffff;fill-opacity:1;fill-rule:nonzero;stroke:none"
       id="path3017" />
    <path
       d="m 586.52098,612.8668 c -0.26375,0.5275 -0.76125,1.62125 -0.76125,0 l 0.76125,0 z"
       style="fill:#000000;fill-opacity:1;fill-rule:nonzero;stroke:none"
       id="path3019" />
    <path
       d="m 552.61098,613.61305 c -0.005,0.02 -0.01,0.025 -0.01,0 l 0.01,0 z"
       style="fill:#000000;fill-opacity:1;fill-rule:nonzero;stroke:none"
       id="path3021" />
    <path
       d="m 584.24598,614.37055 -0.0188,0.01 0.0188,-0.01 z"
       style="fill:#000000;fill-opacity:1;fill-rule:nonzero;stroke:none"
       id="path3023" />
    <path
       d="m 572.80098,616.64555 -0.76125,0.7525 -1.52375,-2.26625 2.285,1.51375 z"
       style="fill:#000000;fill-opacity:1;fill-rule:nonzero;stroke:none"
       id="path3025" />
    <path
       d="m 325.84223,619.66305 -4.57,5.28875 4.57,-5.28875 z"
       style="fill:#ffffff;fill-opacity:1;fill-rule:nonzero;stroke:none"
       id="path3027" />
    <path
       d="m 370.05223,620.42055 c 1.675,3.8575 0.0188,6.455 -2.1825,9.81875 -3.985,6.08 -8.8775,11.61125 -16.10875,13.59375 l 0,-3.77375 4.57,1.50875 0.76125,-0.7575 0,-1.50875 -3.04625,-1.50875 0,-3.77875 4.575,2.265 0,-3.77375 6.86,-6.7975 4.57125,0 0,-1.51375 -2.285,-0.75125 0.76125,-3.0225 1.52375,0 z"
       style="fill:#ffffff;fill-opacity:1;fill-rule:nonzero;stroke:none"
       id="path3029" />
    <path
       d="m 171.11598,624.9518 -3.0325,6.79625 -1.5425,6.7975 c -2.65625,-5.50375 0.26375,-9.85875 4.575,-13.59375 z"
       style="fill:#ffffff;fill-opacity:1;fill-rule:nonzero;stroke:none"
       id="path3031" />
    <path
       d="m 302.21473,625.70805 0,0.7525 -3.04625,1.51375 0,-0.7575 3.04625,-1.50875 z"
       style="fill:#ffffff;fill-opacity:1;fill-rule:nonzero;stroke:none"
       id="path3033" />
    <path
       d="m 548.41098,627.2168 c -0.26375,0.5225 -0.76125,1.62125 -0.76125,0 l 0.76125,0 z"
       style="fill:#ffffff;fill-opacity:1;fill-rule:nonzero;stroke:none"
       id="path3035" />
    <path
       d="m 543.83598,627.9743 0,0.75125 -7.6225,0 7.6225,-0.75125 z"
       style="fill:#ffffff;fill-opacity:1;fill-rule:nonzero;stroke:none"
       id="path3037" />
    <path
       d="m 287.73223,632.50555 c -0.26375,0.5225 -0.76125,1.62125 -0.76125,0 l 0.76125,0 z"
       style="fill:#ffffff;fill-opacity:1;fill-rule:nonzero;stroke:none"
       id="path3039" />
    <path
       d="m 174.16348,634.0143 -1.52375,6.045 3.80875,-0.7575 -1.52375,4.53125 5.3375,-0.75625 1.5225,5.2875 7.6225,-2.265 -3.04625,6.04 -12.955,-6.865 -4.00375,-5.22 4.76125,-6.04 z"
       style="fill:#ffffff;fill-opacity:1;fill-rule:nonzero;stroke:none"
       id="path3041" />
    <path
       d="m 323.55723,645.3418 c -0.26375,0.5275 -0.76125,1.62125 -0.76125,0 l 0.76125,0 z"
       style="fill:#ffffff;fill-opacity:1;fill-rule:nonzero;stroke:none"
       id="path3043" />
    <path
       d="m 349.47098,649.87305 -3.0475,-2.265 3.0475,2.265 z"
       style="fill:#ffffff;fill-opacity:1;fill-rule:nonzero;stroke:none"
       id="path3045" />
    <path
       d="m 191.73098,650.71805 c -0.0188,0.25875 -0.2725,0.58625 -0.2725,0.1275 0,-0.1325 0.2825,-0.23 0.2725,-0.1275 z"
       style="fill:#ffffff;fill-opacity:1;fill-rule:nonzero;stroke:none"
       id="path3047" />
    <path
       d="m 344.13848,651.3868 -9.91125,3.775 c 0.4,-2.48125 2.12375,-5.65 4.575,-3.0225 l 0.76125,0 4.575,-0.7525 z"
       style="fill:#ffffff;fill-opacity:1;fill-rule:nonzero;stroke:none"
       id="path3049" />
    <path
       d="m 213.03473,651.3868 c -0.26375,0.5225 -0.76125,1.61625 -0.76125,0 l 0.76125,0 z"
       style="fill:#ffffff;fill-opacity:1;fill-rule:nonzero;stroke:none"
       id="path3051" />
    <path
       d="m 211.51223,652.1393 0,0.75625 -4.57625,1.50875 0,-0.75125 4.57625,-1.51375 z"
       style="fill:#ffffff;fill-opacity:1;fill-rule:nonzero;stroke:none"
       id="path3053" />
    <path
       d="m 200.07598,653.65305 0,0.75125 -3.80875,0 3.80875,-0.75125 z"
       style="fill:#ffffff;fill-opacity:1;fill-rule:nonzero;stroke:none"
       id="path3055" />
    <path
       d="m 336.51723,661.2018 -3.81375,2.265 0,-0.75125 3.81375,-1.51375 z"
       style="fill:#ffffff;fill-opacity:1;fill-rule:nonzero;stroke:none"
       id="path3057" />
    <path
       d="m 327.36598,663.4668 c -0.26375,0.5275 -0.76125,1.62125 -0.76125,0 l 0.76125,0 z"
       style="fill:#ffffff;fill-opacity:1;fill-rule:nonzero;stroke:none"
       id="path3059" />
    <path
       d="m 320.51098,667.2468 -10.67375,9.81875 7.62125,-10.57625 3.0525,0.7575 z"
       style="fill:#ffffff;fill-opacity:1;fill-rule:nonzero;stroke:none"
       id="path3061" />
    <path
       d="m 302.97723,683.10555 c -6.61625,9.3075 -16.495,16.60125 -24.3225,24.9225 -5.04375,5.36625 -10.0725,10.66875 -15.3125,15.85875 -2.62125,2.5975 -5.205,5.80625 -8.38375,7.74875 -3.52,2.14875 -7.73875,0.7525 -11.435,-0.195 l 0.76125,2.26625 c -1.46875,-0.7325 -2.93375,-1.5975 -4.575,-1.885 -3.325,-0.59125 -6.08375,0.44375 -8.38375,-2.74375 -4.33625,-6.01625 -0.37625,-15.65 7.6275,-11.9875 l 3.04625,-6.7975 11.43625,4.53125 -6.86125,0 6.86125,3.78 0.76125,0 c 3.50125,-4.41875 8.985,-5.80625 14.4825,-6.045 l -0.76125,2.265 12.1925,-11.3275 11.205,-10.70375 11.66125,-9.6875 z"
       style="fill:#ffffff;fill-opacity:1;fill-rule:nonzero;stroke:none"
       id="path3063" />
    <path
       d="m 256.48223,698.96555 0.7625,8.31 1.5225,-2.265 -0.76125,6.79625 -9.9075,-7.55375 8.38375,-5.2875 z"
       style="fill:#ffffff;fill-opacity:1;fill-rule:nonzero;stroke:none"
       id="path3065" />
    <path
       d="m 254.10973,707.05555 -0.37125,-0.0337 0.37125,0.0337 z"
       style="fill:#000000;fill-opacity:1;fill-rule:nonzero;stroke:none"
       id="path3067" />
    <path
       d="m 271.72723,707.27555 -1.52375,3.775 -0.7625,0 2.28625,-3.775 z"
       style="fill:#ffffff;fill-opacity:1;fill-rule:nonzero;stroke:none"
       id="path3069" />
    <path
       d="m 233.61598,722.37805 1.52375,3.0225 -3.80875,-2.265 2.285,-0.7575 z"
       style="fill:#000000;fill-opacity:1;fill-rule:nonzero;stroke:none"
       id="path3071" />
  </g>
</svg>
