<?xml version="1.0" encoding="UTF-8" standalone="no"?>
<!-- Creator: CorelDRAW -->

<svg
   xmlns:dc="http://purl.org/dc/elements/1.1/"
   xmlns:cc="http://creativecommons.org/ns#"
   xmlns:rdf="http://www.w3.org/1999/02/22-rdf-syntax-ns#"
   xmlns:svg="http://www.w3.org/2000/svg"
   xmlns="http://www.w3.org/2000/svg"
   xmlns:xlink="http://www.w3.org/1999/xlink"
   xmlns:sodipodi="http://sodipodi.sourceforge.net/DTD/sodipodi-0.dtd"
   xmlns:inkscape="http://www.inkscape.org/namespaces/inkscape"
   xml:space="preserve"
   width="78.106247"
   height="83.732292"
   style="fill-rule:evenodd"
   viewBox="0 0 0.86784713 0.93035883"
   id="svg2"
   version="1.1"
   inkscape:version="0.47 r22583"
   sodipodi:docname="froscon_logo_separate.svg"><metadata
   id="metadata199"><rdf:RDF><cc:Work
       rdf:about=""><dc:format>image/svg+xml</dc:format><dc:type
         rdf:resource="http://purl.org/dc/dcmitype/StillImage" /><dc:title /></cc:Work></rdf:RDF></metadata><sodipodi:namedview
   pagecolor="#ffffff"
   bordercolor="#666666"
   borderopacity="1"
   objecttolerance="10"
   gridtolerance="10"
   guidetolerance="10"
   inkscape:pageopacity="0"
   inkscape:pageshadow="2"
   inkscape:window-width="1379"
   inkscape:window-height="848"
   id="namedview197"
   showgrid="false"
   inkscape:zoom="0.83377846"
   inkscape:cx="295.44187"
   inkscape:cy="9.2481417"
   inkscape:window-x="0"
   inkscape:window-y="24"
   inkscape:window-maximized="0"
   inkscape:current-layer="Layer_x0020_1" />
 <defs
   id="defs4"><inkscape:perspective
   sodipodi:type="inkscape:persp3d"
   inkscape:vp_x="0 : 526.18048 : 1"
   inkscape:vp_y="0 : 1000 : 0"
   inkscape:vp_z="744.09485 : 526.18048 : 1"
   inkscape:persp3d-origin="372.04742 : 350.78699 : 1"
   id="perspective201" />
  <style
   type="text/css"
   id="style6">
   
    .str0 {stroke:#1F1A17;stroke-width:0.00694488}
    .str4 {stroke:#007CC3;stroke-width:0.0195079;stroke-linecap:round;stroke-linejoin:round}
    .str5 {stroke:white;stroke-width:0.0195079;stroke-linecap:round;stroke-linejoin:round}
    .str2 {stroke:#007CC3;stroke-width:0.0195236;stroke-linecap:round;stroke-linejoin:round}
    .str3 {stroke:white;stroke-width:0.0195236;stroke-linecap:round;stroke-linejoin:round}
    .str1 {stroke:#007CC3;stroke-width:0.0277992;stroke-linecap:round;stroke-linejoin:round}
    .fil0 {fill:none}
    .fil7 {fill:#1F1A17}
    .fil10 {fill:#75C5F0}
    .fil1 {fill:#DEDEDD}
    .fil6 {fill:white}
    .fil2 {fill:#00A2E1;fill-rule:nonzero}
    .fil3 {fill:#838281;fill-rule:nonzero}
    .fil5 {fill:white;fill-rule:nonzero}
    .fil8 {fill:url(#id12)}
    .fil11 {fill:url(#id13)}
    .fil9 {fill:url(#id14)}
    .fil4 {fill:url(#id15)}
   
  </style>
   <mask
   id="id0">
  <linearGradient
   id="id1"
   gradientUnits="userSpaceOnUse"
   x1="3.27019"
   y1="7.12288"
   x2="3.27019"
   y2="7.55515">
   <stop
   offset="0"
   style="stop-opacity:1; stop-color:white"
   id="stop10" />
   <stop
   offset="1"
   style="stop-opacity:0; stop-color:white"
   id="stop12" />
  </linearGradient>
    <rect
   style="fill:url(#id1)"
   x="2.9424601"
   y="7.1062298"
   width="0.65545303"
   height="0.465563"
   id="rect14" />
   </mask>
   <mask
   id="id2">
  <linearGradient
   id="id3"
   gradientUnits="userSpaceOnUse"
   x1="1.71676"
   y1="9.5705996"
   x2="1.71676"
   y2="9.8741903">
   <stop
   offset="0"
   style="stop-opacity:1; stop-color:white"
   id="stop18" />
   <stop
   offset="1"
   style="stop-opacity:0; stop-color:white"
   id="stop20" />
  </linearGradient>
    <rect
   style="fill:url(#id3)"
   x="1.4857399"
   y="9.5580597"
   width="0.462028"
   height="0.32866901"
   id="rect22" />
   </mask>
   <mask
   id="id4">
  <linearGradient
   id="id5"
   gradientUnits="userSpaceOnUse"
   x1="5.3298702"
   y1="9.5705996"
   x2="5.3298702"
   y2="9.8741903">
   <stop
   offset="0"
   style="stop-opacity:1; stop-color:white"
   id="stop26" />
   <stop
   offset="1"
   style="stop-opacity:0; stop-color:white"
   id="stop28" />
  </linearGradient>
    <rect
   style="fill:url(#id5)"
   x="5.0988498"
   y="9.5580597"
   width="0.462028"
   height="0.32866901"
   id="rect30" />
   </mask>
   <mask
   id="id6">
  <linearGradient
   id="id7"
   gradientUnits="userSpaceOnUse"
   x1="3.27019"
   y1="1.96386"
   x2="3.27019"
   y2="2.3961301">
   <stop
   offset="0"
   style="stop-opacity:1; stop-color:white"
   id="stop34" />
   <stop
   offset="1"
   style="stop-opacity:0; stop-color:white"
   id="stop36" />
  </linearGradient>
    <rect
   style="fill:url(#id7)"
   x="2.9424601"
   y="1.94721"
   width="0.65544897"
   height="0.465563"
   id="rect38" />
   </mask>
   <mask
   id="id8">
  <linearGradient
   id="id9"
   gradientUnits="userSpaceOnUse"
   x1="1.77077"
   y1="4.6929402"
   x2="1.77077"
   y2="4.9962802">
   <stop
   offset="0"
   style="stop-opacity:1; stop-color:white"
   id="stop42" />
   <stop
   offset="1"
   style="stop-opacity:0; stop-color:white"
   id="stop44" />
  </linearGradient>
    <rect
   style="fill:url(#id9)"
   x="1.53994"
   y="4.6804099"
   width="0.46165699"
   height="0.32840601"
   id="rect46" />
   </mask>
   <mask
   id="id10">
  <linearGradient
   id="id11"
   gradientUnits="userSpaceOnUse"
   x1="5.35711"
   y1="4.6929402"
   x2="5.35711"
   y2="4.9962802">
   <stop
   offset="0"
   style="stop-opacity:1; stop-color:white"
   id="stop50" />
   <stop
   offset="1"
   style="stop-opacity:0; stop-color:white"
   id="stop52" />
  </linearGradient>
    <rect
   style="fill:url(#id11)"
   x="5.1262898"
   y="4.6804099"
   width="0.46165699"
   height="0.32840601"
   id="rect54" />
   </mask>
  <radialGradient
   id="id12"
   gradientUnits="userSpaceOnUse"
   cx="1.71676"
   cy="9.7279596"
   r="0.29498801"
   fx="1.71676"
   fy="9.7279596">
   <stop
   offset="0"
   style="stop-color:#75C5F0"
   id="stop57" />
   <stop
   offset="1"
   style="stop-color:#007CC3"
   id="stop59" />
  </radialGradient>
  <radialGradient
   id="id13"
   gradientUnits="userSpaceOnUse"
   xlink:href="#id12"
   cx="1.77077"
   cy="4.8501701"
   r="0.294752"
   fx="1.77077"
   fy="4.8501701">
  </radialGradient>
  <radialGradient
   id="id14"
   gradientUnits="userSpaceOnUse"
   xlink:href="#id12"
   cx="3.27019"
   cy="2.1879101"
   r="0.420028"
   fx="3.27019"
   fy="2.1879101">
  </radialGradient>
  <radialGradient
   id="id15"
   gradientUnits="userSpaceOnUse"
   xlink:href="#id12"
   cx="3.27019"
   cy="7.34694"
   r="0.42002401"
   fx="3.27019"
   fy="7.34694">
  </radialGradient>
 </defs>
 <g
   id="Layer_x0020_1"
   transform="translate(-2.8362664,-1.9220004)">
  <metadata
   id="CorelCorpID_0Corel-Layer" />
  
  
  
  
  
  
  
  
  
  
  
  
  
  
  
  
  
  
  
  
  
  
  
  
  
  <ellipse
   class="fil1"
   cx="3.27019"
   cy="2.82919"
   rx="0.20146"
   ry="0.023169201"
   id="ellipse127"
   d="m 3.47165,2.82919 c 0,0.012796 -0.090197,0.023169 -0.20146,0.023169 -0.1112633,0 -0.20146,-0.010373 -0.20146,-0.023169 0,-0.012796 0.090197,-0.023169 0.20146,-0.023169 0.1112633,0 0.20146,0.010373 0.20146,0.023169 z"
   sodipodi:cx="3.27019"
   sodipodi:cy="2.82919"
   sodipodi:rx="0.20146"
   sodipodi:ry="0.023169201"
   style="fill:#dededd" />
  
  
  
  
  <g
   id="g137">
   <path
   class="fil0 str1"
   d="m 3.27019,1.9359 c 0.231933,0 0.420024,0.188091 0.420024,0.420024 0,0.231933 -0.188091,0.420024 -0.420024,0.420024 -0.231933,0 -0.420024,-0.188091 -0.420024,-0.420024 0,-0.231933 0.188091,-0.420024 0.420024,-0.420024 z"
   id="path139"
   style="fill:none;stroke:#007cc3;stroke-width:0.0277992;stroke-linecap:round;stroke-linejoin:round" />
   <path
   id="path141"
   class="fil9"
   d="m 3.27019,1.9359 c 0.231933,0 0.420024,0.188091 0.420024,0.420024 0,0.231933 -0.188091,0.420024 -0.420024,0.420024 -0.231933,0 -0.420024,-0.188091 -0.420024,-0.420024 0,-0.231933 0.188091,-0.420024 0.420024,-0.420024 z"
   style="fill:url(#id14)" />
  </g>
  <path
   class="fil5"
   d="M 3.40961,2.11444 C 3.432043,2.128031 3.420138,2.166853 3.42689,2.192452 3.43067,2.207909 3.43635,2.227176 3.4231,2.239995 3.410758,2.249545 3.387478,2.248375 3.382427,2.263074 3.375927,2.281995 3.39414,2.312235 3.419581,2.310578 3.451164,2.301818 3.476589,2.278322 3.499101,2.255507 3.52138,2.232708 3.513932,2.214794 3.511814,2.186621 3.5108651,2.174078 3.521944,2.158385 3.531542,2.165314 3.55214,2.180192 3.519109,2.21392 3.543274,2.220416 3.56801,2.227066 3.579018,2.156392 3.602002,2.185581 3.616175,2.203569 3.560919,2.21975 3.574652,2.235746 3.587026,2.249108 3.601786,2.211041 3.624636,2.224785 c 0.00452,0.00272 0.00815,0.00958 0.0056,0.014276 C 3.616838,2.263691 3.58559,2.242221 3.582181,2.262305 3.578201,2.285722 3.633,2.260745 3.628827,2.291388 3.623367,2.331506 3.567547,2.275053 3.525839,2.298258 3.484571,2.321215 3.466914,2.370246 3.424048,2.389132 3.399139,2.400112 3.377154,2.374034 3.353804,2.367313 3.348204,2.405108 3.323316,2.433589 3.298709,2.460821 3.276764,2.520183 3.420689,2.443967 3.401548,2.514506 3.389363,2.559412 3.330016,2.541727 3.29265,2.567368 3.28765,2.600482 3.316091,2.613864 3.339174,2.625636 3.375698,2.644258 3.349465,2.654128 3.340384,2.644998 3.320951,2.625459 3.319683,2.639438 3.322982,2.643118 3.336136,2.657803 3.328312,2.651468 3.355124,2.671811 3.36938,2.682626 3.3558484,2.701799 3.342187,2.693154 3.322281,2.673 3.318104,2.651705 3.306974,2.655237 3.292076,2.660627 3.316094,2.674788 3.32519,2.706272 3.33306,2.733504 3.296714,2.736292 3.299304,2.711602 3.302194,2.684082 3.291154,2.666885 3.284678,2.667204 3.275948,2.6676331 3.292988,2.721739 3.272379,2.719818 3.252824,2.717998 3.263129,2.684393 3.264239,2.680503 3.275688,2.640499 3.269039,2.640802 3.250365,2.603621 3.240925,2.58481 3.191971,2.547113 3.218365,2.530432 3.309007,2.50181 3.206243,2.504747 3.197999,2.484503 3.197995,2.481313 3.1976919,2.481133 3.194929,2.482733 3.173276,2.485713 3.124441,2.395249 3.144972,2.488063 3.143722,2.51926 3.086598,2.495713 3.065586,2.496943 3.024054,2.499363 3.020988,2.493453 2.99207,2.523364 2.98926,2.526274 2.965306,2.551994 2.953952,2.53597 2.941983,2.519088 2.997357,2.506789 2.993365,2.499017 2.990405,2.493247 2.969991,2.492287 2.947605,2.508547 2.927522,2.523134 2.911762,2.490259 2.939285,2.483464 2.971096,2.475604 2.995368,2.489324 2.992588,2.473724 2.990078,2.462315 2.969553,2.469344 2.942143,2.462185 2.927828,2.454675 2.937663,2.43337 2.954159,2.440311 2.985175,2.453358 2.975785,2.449751 2.99508,2.453803 2.99991,2.454813 3.011387,2.446733 2.984749,2.439669 2.9723,2.436369 2.967733,2.408716 3.002123,2.431039 3.023859,2.445145 3.049666,2.463082 3.075847,2.442196 3.079367,2.397015 3.034378,2.354464 3.067177,2.32146 3.118697,2.26961 3.124653,2.432362 3.165086,2.383673 3.176369,2.348748 3.18859,2.312952 3.218519,2.289208 3.201027,2.272346 3.167452,2.266346 3.164507,2.239283 3.159427,2.192716 3.193062,2.152913 3.19231,2.105692 3.1915541,2.057968 3.114751,2.037849 3.146767,2.013066 3.17122,1.994129 3.176987,2.054078 3.195279,2.03892 3.210968,2.025924 3.176751,2.009597 3.191379,1.985684 c 0.00279,-0.00456 0.010547,-0.00484 0.015165,-0.00229 0.023327,0.012917 -0.00226,0.044732 0.0155,0.048768 0.02072,0.00389 0.00711,-0.052047 0.029772,-0.048772 0.036768,0.00531 -0.018925,0.050181 -8.031e-4,0.068279 0.017705,0.017681 0.030402,-0.027791 0.053583,-0.01739 0.010803,0.00485 0.00275,0.022287 -0.00859,0.02774 -0.025461,0.012248 -0.044697,0.014756 -0.053299,0.045449 -0.0085,0.030906 -0.016142,0.064673 -0.00793,0.096402 0.011284,0.022862 0.046575,0.023508 0.059716,0.00843 0.010201,-0.011724 -0.00245,-0.031299 -3.504e-4,-0.046764 0.00448,-0.017882 0.024,-0.022602 0.039276,-0.027055 0.025547,-0.00695 0.053213,-0.036673 0.076205,-0.024039 z"
   id="path143"
   style="fill:#ffffff;fill-rule:nonzero" />
  <ellipse
   class="fil10"
   cx="3.4184899"
   cy="2.21737"
   rx="0.0088984901"
   ry="0.0114398"
   id="ellipse145"
   d="m 3.4273884,2.21737 c 0,0.00632 -0.00398,0.01144 -0.0089,0.01144 -0.00491,0 -0.0089,-0.00512 -0.0089,-0.01144 0,-0.00632 0.00398,-0.01144 0.0089,-0.01144 0.00491,0 0.0089,0.00512 0.0089,0.01144 z"
   sodipodi:cx="3.4184899"
   sodipodi:cy="2.21737"
   sodipodi:rx="0.0088984901"
   sodipodi:ry="0.0114398"
   style="fill:#75c5f0" />
  <circle
   class="fil10"
   transform="matrix(-0.315232,-0.545999,-0.701928,0.405259,3.31602,2.15821)"
   r="0.0141142"
   id="circle147"
   d="M 0.0141142,0 C 0.0141142,0.00779506 0.00779506,0.0141142 0,0.0141142 -0.00779506,0.0141142 -0.0141142,0.00779506 -0.0141142,0 c 0,-0.00779506 0.00631914,-0.0141142 0.0141142,-0.0141142 0.00779506,0 0.0141142,0.00631914 0.0141142,0.0141142 z"
   cx="0"
   cy="0"
   sodipodi:cx="0"
   sodipodi:cy="0"
   sodipodi:rx="0.0141142"
   sodipodi:ry="0.0141142"
   style="fill:#75c5f0" />
  <path
   class="fil6"
   style="fill:#ffffff"
   d="m 3.27019,1.95006 c 0.17939,0 0.324874,0.102969 0.324874,0.229933 0,0.126965 -0.145484,0.229929 -0.324874,0.229929 -0.179394,0 -0.324878,-0.102965 -0.324878,-0.229929 0,-0.126965 0.145484,-0.229933 0.324878,-0.229933 z"
   id="path149"
   mask="url(#id6)" />
  
  
  
  
  
  
  
  
  
  
  
  
  
  
  
  
  
  
  
 </g>
</svg>